<svg width="173" height="169" viewBox="0 0 173 169" fill="none" xmlns="http://www.w3.org/2000/svg">
<path d="M147.595 112.364C136.806 97.5128 116.02 94.2207 101.169 105.01C86.3184 115.8 83.0263 136.586 93.816 151.437C104.606 166.287 124.239 161.118 131.399 146.618C147.568 144.169 158.385 127.214 147.595 112.364Z" fill="#742FAB"/>
<path d="M83.9322 80.8825C81.6964 82.5069 87.3478 131.42 87.3478 131.42L130.435 100.115C130.435 100.115 86.1681 79.258 83.9322 80.8825Z" fill="#742FAB"/>
<path d="M78.3658 151.158C89.1555 136.307 85.8634 115.522 71.0126 104.732C56.1618 93.9421 35.3761 97.2343 24.5863 112.085C13.7966 126.936 24.7799 144.011 40.7826 146.34C48.1084 160.961 67.5761 166.009 78.3658 151.158Z" fill="#742FAB"/>
<path d="M88.6334 80.8827C86.3975 79.2582 41.625 99.7479 41.625 99.7479L84.7119 131.052C84.7119 131.052 90.8693 82.5071 88.6334 80.8827Z" fill="#742FAB"/>
<path d="M20.0766 97.3062C37.5348 102.979 56.2859 93.4245 61.9584 75.9664C67.6309 58.5082 58.0767 39.7571 40.6185 34.0846C23.1604 28.4121 10.3149 44.1344 13.0452 60.0735C1.40391 71.5588 2.61849 91.6337 20.0766 97.3062Z" fill="#742FAB"/>
<path d="M90.0853 85.3549C90.9394 82.7265 57.617 46.4769 57.617 46.4769L41.1593 97.1286C41.1593 97.1286 89.2313 87.9833 90.0853 85.3549Z" fill="#742FAB"/>
<path d="M53.2828 25.2294C53.2828 43.586 68.1637 58.467 86.5203 58.467C104.877 58.467 119.758 43.586 119.758 25.2294C119.758 6.87284 100.836 -0.485496 86.5203 7.03661C71.9998 -0.485764 53.2828 6.87285 53.2828 25.2294Z" fill="#742FAB"/>
<path d="M86.2832 88.1187C89.0469 88.1187 113.225 45.2255 113.225 45.2255L59.9668 45.2255C59.9668 45.2255 83.5195 88.1187 86.2832 88.1187Z" fill="#742FAB"/>
<path d="M132.093 34.5355C114.635 40.208 105.081 58.959 110.754 76.4172C116.426 93.8753 135.177 103.429 152.635 97.757C170.094 92.0845 171.244 71.8145 159.667 60.5243C162.334 44.39 149.552 28.863 132.093 34.5355Z" fill="#742FAB"/>
<path d="M82.4799 85.3546C83.3339 87.983 131.599 97.7231 131.599 97.7231L115.141 47.0714C115.141 47.0714 81.6258 82.7261 82.4799 85.3546Z" fill="#742FAB"/>
<path d="M82.214 61.187C82.7894 56.7515 89.2106 56.7515 89.786 61.187C90.2 64.3787 94.1352 65.6574 96.3462 63.3185C99.4188 60.0683 104.614 63.8427 102.472 67.7692C100.931 70.5948 103.363 73.9422 106.527 73.3497C110.923 72.5262 112.907 78.6332 108.866 80.5511C105.959 81.9311 105.959 86.0689 108.866 87.4489C112.907 89.3668 110.923 95.4738 106.527 94.6503C103.363 94.0578 100.931 97.4052 102.472 100.231C104.614 104.157 99.4188 107.932 96.3462 104.681C94.1352 102.343 90.2 103.621 89.786 106.813C89.2106 111.249 82.7894 111.249 82.214 106.813C81.8 103.621 77.8648 102.343 75.6538 104.681C72.5812 107.932 67.3863 104.157 69.5279 100.231C71.069 97.4052 68.6369 94.0578 65.4734 94.6503C61.0773 95.4738 59.093 89.3668 63.1336 87.4489C66.0412 86.0689 66.0412 81.9311 63.1336 80.5511C59.093 78.6332 61.0773 72.5262 65.4734 73.3497C68.6369 73.9422 71.069 70.5948 69.5279 67.7692C67.3863 63.8427 72.5812 60.0683 75.6538 63.3185C77.8648 65.6574 81.8 64.3787 82.214 61.187Z" fill="#EED2F8" stroke="#824E8A" stroke-width="2"/>
</svg>
