<svg width="216" height="216" viewBox="0 0 216 216" fill="none" xmlns="http://www.w3.org/2000/svg">
<path d="M31.6346 184.367C49.9915 173.095 90.9177 142.088 107.767 108.234L31.6346 184.367Z" fill="white"/>
<path d="M31.6349 184.367C42.9067 166.01 73.9137 125.084 107.768 108.234L31.6349 184.367Z" fill="white"/>
<path d="M108.236 107.765C126.593 96.4932 167.519 65.4861 184.369 31.632L108.236 107.765Z" fill="white"/>
<path d="M108.236 107.765C119.508 89.4084 150.515 48.4821 184.369 31.6323L108.236 107.765Z" fill="white"/>
<path d="M8.22206 149.328C29.4952 145.939 79.172 132.954 107.694 108.126L8.22206 149.328Z" fill="white"/>
<path d="M8.22228 149.329C25.6609 136.683 69.9695 110.738 107.695 108.126L8.22228 149.329Z" fill="white"/>
<path d="M108.307 107.872C129.58 104.483 179.257 91.4984 207.779 66.6695L108.307 107.872Z" fill="white"/>
<path d="M108.307 107.873C125.746 95.2268 170.055 69.2818 207.78 66.6701L108.307 107.873Z" fill="white"/>
<path d="M0.000975346 107.999C20.9516 113.009 71.8162 120.023 107.669 107.999L0.000975346 107.999Z" fill="white"/>
<path d="M0.000977779 107.999C20.9516 102.989 71.8162 95.9755 107.669 107.999L0.000977779 107.999Z" fill="white"/>
<path d="M108.332 107.999C129.283 113.009 180.147 120.023 216 107.999L108.332 107.999Z" fill="white"/>
<path d="M108.332 108C129.283 102.99 180.147 95.976 216 108L108.332 108Z" fill="white"/>
<path d="M8.2213 66.6691C25.66 79.3151 69.9686 105.26 107.694 107.872L8.2213 66.6691Z" fill="white"/>
<path d="M8.22109 66.6698C29.4942 70.0586 79.171 83.0436 107.694 107.873L8.22109 66.6698Z" fill="white"/>
<path d="M108.306 108.126C125.745 120.772 170.054 146.717 207.779 149.328L108.306 108.126Z" fill="white"/>
<path d="M108.306 108.126C129.579 111.515 179.256 124.5 207.778 149.329L108.306 108.126Z" fill="white"/>
<path d="M31.633 31.6322C42.9047 49.9891 73.9118 90.9153 107.766 107.765L31.633 31.6322Z" fill="white"/>
<path d="M31.6327 31.6325C49.9896 42.9043 90.9158 73.9113 107.766 107.765L31.6327 31.6325Z" fill="white"/>
<path d="M108.235 108.234C119.506 126.591 150.513 167.517 184.367 184.367L108.235 108.234Z" fill="white"/>
<path d="M108.234 108.234C126.591 119.506 167.517 150.513 184.367 184.367L108.234 108.234Z" fill="white"/>
<path d="M66.6698 8.22109C70.0587 29.4942 83.0437 79.171 107.873 107.693L66.6698 8.22109Z" fill="white"/>
<path d="M66.6691 8.22129C79.3152 25.66 105.26 69.9685 107.872 107.694L66.6691 8.22129Z" fill="white"/>
<path d="M108.126 108.306C111.515 129.579 124.5 179.255 149.329 207.778L108.126 108.306Z" fill="white"/>
<path d="M108.125 108.306C120.771 125.744 146.716 170.053 149.328 207.778L108.125 108.306Z" fill="white"/>
<path d="M107.999 0.000487399C102.989 20.9511 95.9755 71.8157 107.999 107.669L107.999 0.000487399Z" fill="white"/>
<path d="M107.999 0.000489164C113.009 20.9511 120.023 71.8157 107.999 107.669L107.999 0.000489164Z" fill="white"/>
<path d="M107.999 108.331C102.989 129.282 95.9755 180.146 107.999 215.999L107.999 108.331Z" fill="white"/>
<path d="M107.999 108.331C113.009 129.282 120.023 180.146 107.999 215.999L107.999 108.331Z" fill="white"/>
<path d="M149.328 8.2213C136.682 25.66 110.737 69.9686 108.125 107.694L149.328 8.2213Z" fill="white"/>
<path d="M149.327 8.22109C145.938 29.4942 132.953 79.171 108.125 107.693L149.327 8.22109Z" fill="white"/>
<path d="M107.872 108.306C95.2259 125.744 69.2808 170.053 66.6691 207.778L107.872 108.306Z" fill="white"/>
<path d="M107.871 108.306C104.482 129.579 91.4974 179.255 66.6684 207.778L107.871 108.306Z" fill="white"/>
<path d="M184.365 31.6329C166.008 42.9047 125.082 73.9118 108.232 107.766L184.365 31.6329Z" fill="white"/>
<path d="M184.365 31.6327C173.093 49.9896 142.086 90.9158 108.232 107.766L184.365 31.6327Z" fill="white"/>
<path d="M107.764 108.235C89.4069 119.506 48.4806 150.513 31.6309 184.367L107.764 108.235Z" fill="white"/>
<path d="M107.764 108.234C96.4917 126.591 65.4846 167.517 31.6306 184.367L107.764 108.234Z" fill="white"/>
<path d="M207.776 66.6707C186.503 70.0596 136.826 83.0446 108.304 107.874L207.776 66.6707Z" fill="white"/>
<path d="M207.776 66.6701C190.337 79.3161 146.029 105.261 108.303 107.873L207.776 66.6701Z" fill="white"/>
<path d="M107.691 108.127C86.4179 111.516 36.7411 124.501 8.21862 149.33L107.691 108.127Z" fill="white"/>
<path d="M107.691 108.126C90.2522 120.772 45.9436 146.717 8.21841 149.329L107.691 108.126Z" fill="white"/>
<path d="M215.999 108C195.048 102.99 144.184 95.9765 108.331 108L215.999 108Z" fill="white"/>
<path d="M215.999 108C195.048 113.01 144.184 120.024 108.331 108L215.999 108Z" fill="white"/>
<path d="M107.668 108C86.7173 102.99 35.8528 95.976 -0.000182374 108L107.668 108Z" fill="white"/>
<path d="M107.668 107.999C86.7173 113.009 35.8528 120.023 -0.000183837 107.999L107.668 107.999Z" fill="white"/>
<path d="M207.777 149.33C190.338 136.684 146.029 110.739 108.304 108.127L207.777 149.33Z" fill="white"/>
<path d="M207.777 149.329C186.504 145.94 136.827 132.955 108.305 108.126L207.777 149.329Z" fill="white"/>
<path d="M107.692 107.873C90.2531 95.2273 45.9445 69.2823 8.21937 66.6706L107.692 107.873Z" fill="white"/>
<path d="M107.692 107.873C86.4189 104.484 36.7421 91.4989 8.21958 66.6699L107.692 107.873Z" fill="white"/>
<path d="M184.365 184.366C173.093 166.009 142.086 125.083 108.232 108.233L184.365 184.366Z" fill="white"/>
<path d="M184.365 184.366C166.008 173.094 125.082 142.087 108.232 108.233L184.365 184.366Z" fill="white"/>
<path d="M107.764 107.765C96.4917 89.4079 65.4847 48.4816 31.6306 31.6319L107.764 107.765Z" fill="white"/>
<path d="M107.764 107.765C89.4069 96.4927 48.4806 65.4856 31.6309 31.6316L107.764 107.765Z" fill="white"/>
<path d="M149.326 207.778C145.937 186.505 132.952 136.828 108.123 108.306L149.326 207.778Z" fill="white"/>
<path d="M149.327 207.778C136.681 190.339 110.736 146.03 108.124 108.305L149.327 207.778Z" fill="white"/>
<path d="M107.87 107.693C104.481 86.4204 91.4963 36.7436 66.6674 8.22109L107.87 107.693Z" fill="white"/>
<path d="M107.871 107.693C95.2249 90.2546 69.2798 45.946 66.6681 8.22088L107.871 107.693Z" fill="white"/>
<path d="M107.997 215.999C113.007 195.048 120.021 144.184 107.997 108.331L107.997 215.999Z" fill="white"/>
<path d="M107.997 215.999C102.987 195.048 95.9735 144.184 107.997 108.331L107.997 215.999Z" fill="white"/>
<path d="M107.997 107.668C113.007 86.7178 120.021 35.8533 107.997 0.000305693L107.997 107.668Z" fill="white"/>
<path d="M107.997 107.668C102.987 86.7178 95.9735 35.8533 107.997 0.000304659L107.997 107.668Z" fill="white"/>
<path d="M66.672 207.778C79.3181 190.339 105.263 146.03 107.875 108.305L66.672 207.778Z" fill="white"/>
<path d="M66.6727 207.778C70.0616 186.505 83.0466 136.828 107.876 108.306L66.6727 207.778Z" fill="white"/>
<path d="M108.128 107.693C120.774 90.2546 146.719 45.946 149.331 8.22085L108.128 107.693Z" fill="white"/>
<path d="M108.129 107.693C111.518 86.4204 124.503 36.7435 149.332 8.22106L108.129 107.693Z" fill="white"/>
<path d="M106.23 90.3473C106.41 88.1746 109.59 88.1746 109.77 90.3473C109.918 92.1263 112.303 92.6007 113.12 91.0136C114.118 89.0752 117.056 90.2922 116.391 92.3685C115.846 94.0685 117.868 95.4195 119.231 94.2659C120.894 92.8569 123.143 95.1057 121.734 96.7694C120.581 98.1317 121.932 100.154 123.632 99.6091C125.708 98.9441 126.925 101.882 124.986 102.88C123.399 103.697 123.874 106.082 125.653 106.23C127.825 106.41 127.825 109.59 125.653 109.77C123.874 109.918 123.399 112.303 124.986 113.12C126.925 114.118 125.708 117.056 123.632 116.391C121.932 115.846 120.581 117.868 121.734 119.231C123.143 120.894 120.894 123.143 119.231 121.734C117.868 120.581 115.846 121.932 116.391 123.632C117.056 125.708 114.118 126.925 113.12 124.986C112.303 123.399 109.918 123.874 109.77 125.653C109.59 127.825 106.41 127.825 106.23 125.653C106.082 123.874 103.697 123.399 102.88 124.986C101.882 126.925 98.9441 125.708 99.6091 123.632C100.154 121.932 98.1317 120.581 96.7694 121.734C95.1057 123.143 92.8569 120.894 94.2659 119.231C95.4195 117.868 94.0685 115.846 92.3685 116.391C90.2922 117.056 89.0752 114.118 91.0136 113.12C92.6007 112.303 92.1263 109.918 90.3473 109.77C88.1746 109.59 88.1746 106.41 90.3473 106.23C92.1263 106.082 92.6007 103.697 91.0136 102.88C89.0752 101.882 90.2922 98.9441 92.3685 99.6091C94.0685 100.154 95.4195 98.1317 94.2659 96.7694C92.8569 95.1057 95.1057 92.8569 96.7694 94.2659C98.1317 95.4195 100.154 94.0685 99.6091 92.3685C98.9441 90.2922 101.882 89.0752 102.88 91.0136C103.697 92.6007 106.082 92.1263 106.23 90.3473Z" fill="#F4B542" stroke="#638A4E" stroke-width="2"/>
</svg>
